<svg xmlns="http://www.w3.org/2000/svg" viewBox="0 0 240 360" width="240" height="360">
  <defs>
    <filter id="drop-shadow" x="-20%" y="-20%" width="140%" height="140%">
      <feDropShadow dx="3" dy="5" stdDeviation="4" flood-color="#000000" flood-opacity="0.35"/>
    </filter>
  </defs>

  <!-- Outer Rounded White Border -->
  <rect x="2" y="2" width="236" height="356" rx="18" ry="18" fill="#ffffff" stroke="#cbd5e1" stroke-width="1.5"/>

  <!-- Inner Card Face -->
  <rect x="10" y="10" width="220" height="340" rx="13" ry="13" fill="#e52521"/>

  <!-- Center Oval (if non-wild) -->
  <ellipse cx="120" cy="180" rx="72" ry="112" transform="rotate(-23 120 180)" fill="#ffffff" filter="url(#drop-shadow)"/>

  <!-- Center Artwork -->
  
        <g transform="rotate(-23 120 180)">
          <!-- Top Arrow -->
          <path d="M70,162 L150,162 L150,146 L175,170 L150,194 L150,178 L70,178 Z" fill="#e52521" stroke="#000" stroke-width="2"/>
          <!-- Bottom Arrow -->
          <path d="M170,198 L90,198 L90,214 L65,190 L90,166 L90,182 L170,182 Z" fill="#e52521" stroke="#000" stroke-width="2"/>
        </g>
        

  <!-- Corner Symbols -->
  
        <g transform="translate(24, 34) scale(0.65)">
          <path d="M-12,-4 L4,-4 L4,-10 L14,0 L4,10 L4,4 L-12,4 Z" fill="#ffffff" stroke="#000" stroke-width="1.5"/>
          <path d="M12,4 L-4,4 L-4,10 L-14,0 L-4,-10 L-4,-4 L12,-4 Z" fill="#ffffff" stroke="#000" stroke-width="1.5"/>
        </g>
        
  
    <g transform="rotate(180 120 180)">
      
        <g transform="translate(24, 34) scale(0.65)">
          <path d="M-12,-4 L4,-4 L4,-10 L14,0 L4,10 L4,4 L-12,4 Z" fill="#ffffff" stroke="#000" stroke-width="1.5"/>
          <path d="M12,4 L-4,4 L-4,10 L-14,0 L-4,-10 L-4,-4 L12,-4 Z" fill="#ffffff" stroke="#000" stroke-width="1.5"/>
        </g>
        
    </g>
    
</svg>